<svg height="502pt" viewBox="0 -1 502.704 502" width="502pt" xmlns="http://www.w3.org/2000/svg"><path d="m470.601562 409.878906c-8.257812-23.09375-27.441406-40.238281-51.320312-45.863281l-95.929688-22.574219v-41.664062h-16v46.277344c-2.976562 6.265624-18.183593 33.722656-56 33.722656-37.816406 0-53.023437-27.457032-56-33.722656v-46.277344h-16v41.664062l-95.9375 22.566406c-23.878906 5.625-43.0625 22.777344-51.316406 45.871094l-32.097656 89.898438h502.703125zm-353.28125 73.898438 13.839844-62.265625-15.617187-3.472657-14.605469 65.738282h-78.234375l24.472656-68.503906c6.417969-17.96875 21.335938-31.3125 39.914063-35.679688l95.988281-22.585938c7.066406 12.375 26.9375 38.769532 68.273437 38.769532 41.335938 0 61.207032-26.394532 68.28125-38.777344l95.992188 22.585938c18.566406 4.367187 33.496094 17.710937 39.910156 35.671874l24.464844 68.519532h-78.230469l-14.609375-65.738282-15.617187 3.472657 13.839843 62.265625zm0 0"/><path d="m393.335938 169.089844-11.960938-10.625 10.847656-12.207032c30.410156-34.210937 48.21875-77.488281 50.800782-122.9375l-76.933594 27.976563-5.472656-15.03125 98.734374-35.914063v11.425782c0 53.550781-19.589843 105.085937-55.167968 145.101562zm0 0"/><path d="m392.152344 90.175781-9.601563-12.800781c20.503907-15.375 38.113281-33.984375 52.335938-55.320312l9.816406-14.71875 13.3125 8.871093-9.816406 14.722657c-15.230469 22.847656-34.09375 42.78125-56.046875 59.246093zm0 0"/><path d="m142.089844 36.265625-98.738282-35.914063v11.425782c0 53.550781 19.59375 105.085937 55.167969 145.101562l10.847657 12.210938 11.960937-10.625-10.847656-12.207032c-26.585938-29.90625-43.527344-66.746093-49.105469-105.90625 13.945312 18.878907 30.335938 35.703126 49.175781 49.824219l9.601563-12.800781c-18.601563-13.949219-34.671875-30.679688-48.144532-49.574219l64.609376 23.496094zm0 0"/><path d="m251.351562 347.777344c-27.535156 0-53.128906-14.847656-66.792968-38.761719-7.566406-13.238281-17.4375-24.785156-29.34375-34.296875l-2.664063-2.144531c-11.414062-9.132813-24.144531-16.367188-37.832031-21.503907l-57.703125-21.628906 42.792969-25.664062-45.136719-27.082032 52.679687-13.167968v-51.191406c0-48.558594 33.953126-91.191407 80.738282-101.375 21.902344-4.761719 43.191406-7.183594 63.261718-7.183594 20.074219 0 41.359376 2.421875 63.265626 7.183594 46.78125 10.183593 80.734374 52.816406 80.734374 101.375v51.183593l52.679688 13.167969-45.136719 27.089844 42.792969 25.671875-57.695312 21.628906c-13.703126 5.136719-26.433594 12.371094-37.839844 21.507813l-2.664063 2.132812c-11.902343 9.519531-21.777343 21.066406-29.34375 34.304688-13.664062 23.90625-39.257812 38.753906-66.792969 38.753906zm0 0" fill="#f0bc5e"/><path d="m366.839844 106.976562-6.976563-14.402343c-.480469.234375-48.640625 23.203125-108.511719 23.203125-59.6875 0-108.039062-22.96875-108.519531-23.203125l-6.96875 14.402343c.578125.28125 4.914063 2.320313 12.066407 5.09375-.371094 2.457032-.578126 4.960938-.578126 7.496094 0 22.058594 14.351563 40 32 40 13.207032 0 24.570313-10.0625 29.449219-24.367187 11.3125 19.441406 17.605469 41.375 18.390625 63.832031-4.816406 5.601562-7.839844 12.792969-7.839844 20.746094 0 14.871094 10.242188 27.285156 24 30.863281v1.136719c0 8.824218-7.175781 16-16 16-8.824218 0-16-7.175782-16-16h-16c0 13.957031 9.039063 25.734375 21.535157 30.09375l-5.125 15.367187 15.175781 5.066407 6.375-19.136719c7.167969-1.359375 13.40625-5.167969 18.03125-10.457031 4.625 5.289062 10.863281 9.097656 18.03125 10.457031l6.378906 19.136719 15.175782-5.066407-5.128907-15.367187c12.511719-4.359375 21.550781-16.136719 21.550781-30.09375h-16c0 8.824218-7.175781 16-16 16-8.824218 0-16-7.175782-16-16v-1.136719c13.761719-3.578125 24-15.992187 24-30.863281 0-7.953125-3.023437-15.144532-7.839843-20.746094.785156-22.457031 7.074219-44.390625 18.390625-63.832031 4.882812 14.3125 16.242187 24.367187 29.449218 24.367187 17.648438 0 32-17.941406 32-40 0-2.535156-.207031-5.03125-.574218-7.488281 7.152344-2.773437 11.480468-4.820313 12.0625-5.101563zm-88.527344 23.359376c-10.015625 18.191406-16.183594 38.199218-18.167969 58.816406-2.816406-.808594-5.730469-1.375-8.792969-1.375s-5.976562.566406-8.792968 1.382812c-1.992188-20.617187-8.160156-40.625-18.167969-58.816406 8.640625.871094 17.625 1.433594 26.960937 1.433594 9.335938 0 18.320313-.5625 26.960938-1.441406zm-98.960938 13.230468c-8.671874 0-16-10.992187-16-24 0-.671875.105469-1.328125.136719-1.992187 8.757813 2.808593 19.335938 5.730469 31.222657 8.195312-1.878907 10.09375-8.117188 17.796875-15.359376 17.796875zm72 92.210938c-8.824218 0-16-7.175782-16-16 0-8.824219 7.175782-16 16-16 8.824219 0 16 7.175781 16 16 0 8.824218-7.175781 16-16 16zm88-116.210938c0 13.007813-7.328124 24-16 24-7.238281 0-13.480468-7.695312-15.359374-17.796875 11.886718-2.464843 22.464843-5.386719 31.222656-8.195312.03125.664062.136718 1.3125.136718 1.992187zm0 0"/></svg>